<?xml version="1.0" encoding="UTF-8"?>
<svg id="Layer_1" data-name="Layer 1" xmlns="http://www.w3.org/2000/svg" xmlns:xlink="http://www.w3.org/1999/xlink" viewBox="0 0 214.37 69.89">
  <defs>
    <style>
      .cls-1 {
        fill: url(#linear-gradient-8);
      }

      .cls-2 {
        fill: url(#linear-gradient-7);
      }

      .cls-3 {
        fill: url(#linear-gradient-5);
      }

      .cls-4 {
        fill: url(#linear-gradient-6);
      }

      .cls-5 {
        fill: url(#linear-gradient-9);
      }

      .cls-6 {
        fill: url(#linear-gradient-4);
      }

      .cls-7 {
        fill: url(#linear-gradient-3);
      }

      .cls-8 {
        fill: url(#linear-gradient-2);
      }

      .cls-9 {
        fill: url(#linear-gradient);
      }

      .cls-10 {
        fill: url(#linear-gradient-10);
      }

      .cls-11 {
        fill: url(#linear-gradient-11);
      }

      .cls-12 {
        fill: url(#linear-gradient-12);
      }

      .cls-13 {
        fill: url(#linear-gradient-13);
      }

      .cls-14 {
        fill: url(#linear-gradient-19);
      }

      .cls-15 {
        fill: url(#linear-gradient-14);
      }

      .cls-16 {
        fill: url(#linear-gradient-21);
      }

      .cls-17 {
        fill: url(#linear-gradient-20);
      }

      .cls-18 {
        fill: url(#linear-gradient-15);
      }

      .cls-19 {
        fill: url(#linear-gradient-16);
      }

      .cls-20 {
        fill: url(#linear-gradient-17);
      }

      .cls-21 {
        fill: url(#linear-gradient-18);
      }
    </style>
    <linearGradient id="linear-gradient" x1="217.63" y1="45.64" x2="13.27" y2="45.64" gradientUnits="userSpaceOnUse">
      <stop offset="0" stop-color="#1b449c"/>
      <stop offset="1" stop-color="#ec008c"/>
    </linearGradient>
    <linearGradient id="linear-gradient-2" x1="217.63" y1="13.82" x2="13.27" y2="13.82" gradientTransform="translate(13.33 -4.67) rotate(44.83)" xlink:href="#linear-gradient"/>
    <linearGradient id="linear-gradient-3" x1="217.63" y1="9.76" x2="13.27" y2="9.76" gradientTransform="translate(11.65 -8.73) rotate(44.83)" xlink:href="#linear-gradient"/>
    <linearGradient id="linear-gradient-4" x1="217.63" y1="25.04" x2="13.27" y2="25.04" gradientTransform="translate(24.48 -9.27) rotate(44.83)" xlink:href="#linear-gradient"/>
    <linearGradient id="linear-gradient-5" x1="217.63" y1="20.98" x2="13.27" y2="20.98" gradientTransform="translate(22.8 -13.33) rotate(44.83)" xlink:href="#linear-gradient"/>
    <linearGradient id="linear-gradient-6" x1="217.63" y1="9.78" x2="13.27" y2="9.78" gradientTransform="translate(8.3 39.53) rotate(-45.17)" xlink:href="#linear-gradient"/>
    <linearGradient id="linear-gradient-7" x1="217.63" y1="13.86" x2="13.27" y2="13.86" gradientTransform="translate(6.61 43.61) rotate(-45.17)" xlink:href="#linear-gradient"/>
    <linearGradient id="linear-gradient-8" x1="217.63" y1="20.93" x2="13.27" y2="20.93" gradientTransform="translate(-2.92 34.86) rotate(-45.17)" xlink:href="#linear-gradient"/>
    <linearGradient id="linear-gradient-9" x1="217.63" y1="25.01" x2="13.27" y2="25.01" gradientTransform="translate(-4.61 38.94) rotate(-45.17)" xlink:href="#linear-gradient"/>
    <linearGradient id="linear-gradient-10" x1="217.63" y1="52.24" x2="13.27" y2="52.24" xlink:href="#linear-gradient"/>
    <linearGradient id="linear-gradient-11" x1="217.63" y1="52.24" x2="13.27" y2="52.24" xlink:href="#linear-gradient"/>
    <linearGradient id="linear-gradient-12" x1="217.63" y1="52.24" x2="13.27" y2="52.24" xlink:href="#linear-gradient"/>
    <linearGradient id="linear-gradient-13" x1="217.63" y1="54.79" x2="13.27" y2="54.79" xlink:href="#linear-gradient"/>
    <linearGradient id="linear-gradient-14" x1="217.63" y1="52.24" x2="13.27" y2="52.24" xlink:href="#linear-gradient"/>
    <linearGradient id="linear-gradient-15" x1="217.62" y1="54.82" x2="13.26" y2="54.82" xlink:href="#linear-gradient"/>
    <linearGradient id="linear-gradient-16" x1="217.63" y1="54.82" x2="13.27" y2="54.82" xlink:href="#linear-gradient"/>
    <linearGradient id="linear-gradient-17" x1="217.63" y1="52.32" x2="13.27" y2="52.32" xlink:href="#linear-gradient"/>
    <linearGradient id="linear-gradient-18" x1="217.63" y1="57.39" x2="13.27" y2="57.39" xlink:href="#linear-gradient"/>
    <linearGradient id="linear-gradient-19" x1="217.63" y1="52.24" x2="13.27" y2="52.24" xlink:href="#linear-gradient"/>
    <linearGradient id="linear-gradient-20" x1="217.63" y1="52.46" x2="13.27" y2="52.46" xlink:href="#linear-gradient"/>
    <linearGradient id="linear-gradient-21" x1="217.63" y1="54.82" x2="13.27" y2="54.82" xlink:href="#linear-gradient"/>
  </defs>
  <g>
    <path class="cls-9" d="M34.48,39.14c.33.21.65.42.95.63.25-.16.5-.32.75-.49,2.39-1.58,3.32-2.82,3.32-4.44,0-.03,0-.05,0-.08s0-.05,0-.08c0-1.62-.93-2.86-3.32-4.44-.26-.17-.51-.34-.76-.5h-1.91c.21.14.42.27.63.41.41.27.84.55,1.27.83.3.2.57.39.82.57h-4.39c.24-.18.51-.37.82-.57.32-.21.63-.41.94-.62-.33-.21-.65-.42-.95-.63-.25.16-.5.32-.75.49-2.39,1.58-3.32,2.82-3.32,4.44,0,.03,0,.05,0,.08,0,.03,0,.05,0,.08,0,1.62.93,2.86,3.32,4.44.44.29.87.57,1.28.84.12.08.33.22.33.22.21.14.42.27.63.41.41.27.84.55,1.27.83.3.2.57.39.82.57h-4.39c.24-.18.51-.37.82-.57.32-.21.63-.41.94-.62-.33-.21-.65-.42-.95-.63-.25.16-.5.32-.75.49-2.39,1.58-3.32,2.82-3.32,4.44,0,.03,0,.05,0,.08,0,.03,0,.05,0,.08,0,1.62.93,2.86,3.32,4.44.44.29.87.57,1.28.84.12.08.33.22.33.22.21.14.42.27.63.41.41.27.84.55,1.27.83.3.2.57.39.82.57h-4.39c.24-.18.51-.37.82-.57.32-.21.63-.41.94-.62-.33-.21-.65-.42-.95-.63-.25.16-.5.32-.75.49-2.39,1.58-3.32,2.82-3.32,4.44,0,.03,0,.05,0,.08,0,.03,0,.05,0,.08,0,1.62.93,2.86,3.32,4.44.44.29.87.57,1.28.84.12.08.23.15.34.22h1.9c-.47-.31-.97-.64-1.49-.98-.41-.27-.84-.55-1.27-.83-.24-.16-.46-.31-.67-.46h4.09c-.2.15-.43.3-.67.46-.32.21-.63.41-.94.62.33.21.65.42.95.63.25-.16.5-.32.75-.49,2.39-1.58,3.32-2.82,3.32-4.44,0-.03,0-.05,0-.08s0-.05,0-.08c0-1.62-.93-2.86-3.32-4.44-.26-.17-.76-.5-.76-.5-.47-.31-.97-.64-1.49-.98-.41-.27-.84-.55-1.27-.83-.24-.16-.46-.31-.67-.46h4.09c-.2.15-.43.3-.67.46-.32.21-.63.41-.94.62.33.21.65.42.95.63.25-.16.5-.32.75-.49,2.39-1.58,3.32-2.82,3.32-4.44,0-.03,0-.05,0-.08s0-.05,0-.08c0-1.62-.93-2.86-3.32-4.44-.26-.17-.76-.5-.76-.5-.47-.31-.97-.64-1.49-.98-.41-.27-.84-.55-1.27-.83-.24-.16-.46-.31-.67-.46h4.09c-.2.15-.43.3-.67.46-.32.21-.63.41-.94.62ZM36.96,58.57h-5.85c-.56-.51-.9-.95-1.1-1.38h8.04c-.2.43-.53.87-1.1,1.38ZM38.29,55.88v.05h0s0,.02,0,.03c0,.01,0,.02,0,.03h0v.05c0,.15,0,.3-.03.44h-8.45c-.02-.15-.03-.29-.03-.44v-.05h0s0-.02,0-.03v-.03s0-.03,0-.05c0-.19.02-.38.05-.57h8.41c.04.19.05.38.05.57ZM38,54.61h-7.91c.19-.36.47-.73.92-1.15h6.08c.44.41.73.79.92,1.15ZM36.96,47.96h-5.85c-.56-.51-.9-.95-1.1-1.38h8.04c-.2.43-.53.87-1.1,1.38ZM38.29,45.27v.05h0s0,.02,0,.03c0,.01,0,.02,0,.03h0v.05c0,.15,0,.3-.03.44h-8.45c-.02-.15-.03-.29-.03-.44v-.05h0s0-.02,0-.03v-.03s0-.03,0-.05c0-.19.02-.38.05-.57h8.41c.04.19.05.38.05.57ZM38,44h-7.91c.19-.36.47-.73.92-1.15h6.08c.44.41.73.79.92,1.15ZM31,32.25h6.08c.44.41.73.79.92,1.15h-7.91c.19-.36.47-.73.92-1.15ZM29.78,34.83v-.05h0s0-.02,0-.03v-.03s0-.03,0-.05c0-.19.02-.38.05-.57h8.41c.04.19.05.38.05.57v.05h0s0,.02,0,.03c0,.01,0,.02,0,.03h0v.05c0,.15,0,.3-.03.44h-8.45c-.02-.15-.03-.29-.03-.44ZM31.12,37.36c-.56-.51-.9-.95-1.1-1.38h8.04c-.2.43-.53.87-1.1,1.38h-5.85Z"/>
    <g>
      <g>
        <rect class="cls-8" x="10.57" y="6.89" width="3.52" height="13.85" rx="1" ry="1" transform="translate(-6.16 12.71) rotate(-44.83)"/>
        <rect class="cls-7" x="14.65" y="2.83" width="3.52" height="13.85" rx="1" ry="1" transform="translate(-2.11 14.41) rotate(-44.83)"/>
        <rect class="cls-6" x="21.72" y="18.11" width="3.52" height="13.85" rx="1" ry="1" transform="translate(-10.82 23.84) rotate(-44.83)"/>
        <rect class="cls-3" x="25.8" y="14.05" width="3.52" height="13.85" rx="1" ry="1" transform="translate(-6.78 25.53) rotate(-44.83)"/>
      </g>
      <g>
        <rect class="cls-4" x="49.9" y="2.86" width="3.52" height="13.85" rx="1" ry="1" transform="translate(22.18 -33.75) rotate(45.17)"/>
        <rect class="cls-2" x="53.96" y="6.93" width="3.52" height="13.85" rx="1" ry="1" transform="translate(26.27 -35.43) rotate(45.17)"/>
        <rect class="cls-1" x="38.69" y="14.01" width="3.52" height="13.85" rx="1" ry="1" transform="translate(26.78 -22.51) rotate(45.17)"/>
        <rect class="cls-5" x="42.74" y="18.08" width="3.52" height="13.85" rx="1" ry="1" transform="translate(30.86 -24.18) rotate(45.17)"/>
      </g>
    </g>
  </g>
  <g>
    <path class="cls-10" d="M53.06,45.09l4.21,12.48,4.23-12.57c.22-.66.39-1.12.5-1.38.11-.26.29-.49.55-.7.25-.21.6-.31,1.04-.31.32,0,.62.08.9.24.27.16.49.37.65.64s.23.54.23.81c0,.19-.03.39-.08.6s-.11.43-.19.63c-.08.21-.15.42-.23.64l-4.51,12.16c-.16.46-.32.91-.48,1.33s-.35.79-.56,1.1-.49.58-.84.78-.78.3-1.29.3-.94-.1-1.29-.3c-.35-.2-.63-.46-.85-.79-.22-.33-.4-.7-.56-1.11-.16-.42-.32-.86-.48-1.32l-4.43-12.06c-.08-.22-.15-.44-.23-.65-.08-.21-.15-.44-.2-.69-.06-.25-.08-.45-.08-.62,0-.43.17-.83.52-1.18s.78-.53,1.31-.53c.64,0,1.1.2,1.36.59s.54,1.02.82,1.89Z"/>
    <path class="cls-11" d="M70.53,42.94h4.91c1.28,0,2.37.12,3.29.36.91.24,1.74.68,2.49,1.33,1.94,1.66,2.91,4.18,2.91,7.57,0,1.12-.1,2.14-.29,3.06-.19.92-.5,1.75-.9,2.49-.41.74-.93,1.4-1.56,1.99-.5.45-1.05.81-1.64,1.08-.59.27-1.23.46-1.91.57-.68.11-1.45.17-2.3.17h-4.91c-.69,0-1.2-.1-1.55-.31-.35-.21-.57-.5-.68-.88-.11-.38-.16-.87-.16-1.47v-13.65c0-.81.18-1.4.55-1.76.36-.36.95-.55,1.76-.55ZM71.99,45.92v12.63h2.86c.63,0,1.12-.02,1.47-.05.36-.03.72-.12,1.1-.25.38-.14.71-.33.99-.57,1.26-1.07,1.89-2.9,1.89-5.51,0-1.84-.28-3.21-.83-4.13s-1.24-1.5-2.05-1.75c-.81-.25-1.79-.37-2.95-.37h-2.49Z"/>
    <path class="cls-12" d="M98.26,44.9v9.75c0,.85-.04,1.57-.11,2.16-.07.59-.23,1.19-.49,1.8-.42,1.02-1.12,1.82-2.09,2.39s-2.16.86-3.55.86c-1.26,0-2.31-.2-3.15-.6-.84-.4-1.52-1.04-2.04-1.93-.27-.47-.49-1.02-.66-1.64-.17-.62-.25-1.21-.25-1.76,0-.59.17-1.05.5-1.36.33-.31.75-.47,1.27-.47s.88.14,1.13.43c.25.29.45.74.58,1.35.14.65.29,1.17.43,1.56.14.39.39.72.72,1s.82.42,1.45.42c1.67,0,2.5-1.22,2.5-3.67v-10.3c0-.76.17-1.33.5-1.71s.79-.57,1.36-.57,1.05.19,1.39.57.51.95.51,1.71Z"/>
    <path class="cls-13" d="M106.66,56.32h-4.01c-.61,0-1.07-.14-1.39-.43-.32-.28-.48-.65-.48-1.1s.15-.83.46-1.11c.31-.28.78-.42,1.4-.42h4.01c.63,0,1.09.14,1.4.42.31.28.46.65.46,1.11s-.15.81-.46,1.1c-.3.28-.77.43-1.41.43Z"/>
    <path class="cls-15" d="M111.16,59.57v-14.66c0-.76.17-1.33.52-1.71s.8-.57,1.35-.57,1.03.19,1.38.56c.35.38.53.95.53,1.72v14.66c0,.77-.18,1.35-.53,1.73s-.81.57-1.38.57-.99-.19-1.34-.58c-.35-.38-.53-.96-.53-1.72Z"/>
    <path class="cls-18" d="M122.05,49.69v.42c.61-.8,1.28-1.39,2-1.77.72-.38,1.56-.56,2.49-.56s1.73.2,2.45.6c.72.4,1.26.96,1.61,1.69.23.42.38.88.44,1.37.07.49.1,1.12.1,1.88v6.45c0,.69-.16,1.22-.48,1.57s-.73.53-1.24.53-.94-.18-1.26-.55c-.32-.36-.48-.88-.48-1.56v-5.78c0-1.14-.16-2.02-.48-2.62-.32-.6-.95-.91-1.9-.91-.62,0-1.18.18-1.69.55s-.88.87-1.12,1.52c-.17.52-.25,1.48-.25,2.89v4.34c0,.7-.16,1.23-.49,1.58-.33.35-.75.53-1.26.53s-.91-.18-1.23-.55c-.32-.36-.48-.88-.48-1.56v-10.02c0-.66.14-1.15.43-1.48.29-.33.68-.49,1.18-.49.3,0,.58.07.83.22.25.14.44.36.59.65.15.29.22.64.22,1.05Z"/>
    <path class="cls-19" d="M145.76,57.33c0,.96-.23,1.78-.7,2.46-.47.68-1.15,1.2-2.06,1.55-.91.35-2.02.53-3.32.53s-2.31-.19-3.2-.57-1.54-.86-1.97-1.43-.63-1.14-.63-1.72c0-.38.14-.71.41-.98.27-.27.61-.41,1.03-.41.36,0,.64.09.84.27s.38.43.56.75c.36.62.78,1.08,1.28,1.38s1.17.46,2.02.46c.69,0,1.26-.15,1.71-.46.44-.31.67-.66.67-1.06,0-.61-.23-1.05-.69-1.33s-1.22-.55-2.28-.8c-1.19-.3-2.16-.61-2.91-.93-.75-.33-1.35-.75-1.8-1.29s-.67-1.19-.67-1.97c0-.69.21-1.35.62-1.97.41-.62,1.03-1.11,1.83-1.48s1.78-.55,2.93-.55c.9,0,1.7.09,2.42.28.72.19,1.31.44,1.79.75.48.31.84.66,1.09,1.04s.37.75.37,1.12c0,.4-.13.72-.4.98-.27.25-.65.38-1.14.38-.36,0-.66-.1-.91-.3s-.54-.51-.86-.91c-.26-.34-.57-.61-.93-.81s-.84-.3-1.45-.3-1.15.13-1.56.4-.62.6-.62,1c0,.36.15.66.46.89.3.23.72.43,1.23.58s1.23.34,2.13.56c1.07.26,1.95.58,2.63.94.68.36,1.2.79,1.55,1.29s.53,1.06.53,1.7Z"/>
    <path class="cls-20" d="M150.45,46.16c-.48,0-.9-.15-1.24-.44-.34-.3-.51-.72-.51-1.26,0-.49.18-.9.53-1.21s.76-.48,1.23-.48.85.14,1.19.43c.35.29.52.71.52,1.26s-.17.95-.51,1.25c-.34.3-.74.45-1.21.45ZM152.16,49.74v10.02c0,.69-.17,1.22-.5,1.57s-.75.53-1.26.53-.92-.18-1.24-.55c-.32-.36-.48-.88-.48-1.56v-9.92c0-.69.16-1.2.48-1.55.32-.35.73-.52,1.24-.52s.93.17,1.26.52c.33.35.5.83.5,1.45Z"/>
    <path class="cls-21" d="M168.49,50.31v10.07c0,1.15-.12,2.14-.37,2.97-.25.83-.64,1.51-1.18,2.06-.54.54-1.25.94-2.13,1.21-.88.26-1.97.39-3.27.39-1.19,0-2.26-.17-3.2-.5-.94-.33-1.66-.77-2.17-1.29-.51-.53-.76-1.07-.76-1.63,0-.42.14-.77.43-1.04s.63-.4,1.04-.4c.51,0,.95.22,1.33.67.19.23.38.46.58.69.2.23.42.43.66.6s.53.29.87.37c.34.08.73.12,1.17.12.9,0,1.59-.12,2.09-.38.5-.25.84-.6,1.04-1.05.2-.45.32-.93.35-1.44.03-.51.06-1.33.08-2.47-.53.74-1.15,1.31-1.85,1.7-.7.39-1.53.58-2.49.58-1.16,0-2.17-.3-3.04-.89-.87-.59-1.53-1.42-2-2.49s-.7-2.3-.7-3.69c0-1.04.14-1.98.43-2.82s.69-1.54,1.21-2.12c.52-.58,1.13-1.01,1.82-1.3s1.44-.44,2.26-.44c.98,0,1.83.19,2.55.56.72.38,1.39.97,2.01,1.77v-.47c0-.6.15-1.07.44-1.4s.68-.5,1.14-.5c.67,0,1.11.22,1.33.65.22.44.33,1.06.33,1.89ZM158.45,54.71c0,1.4.31,2.47.92,3.19.61.72,1.41,1.08,2.38,1.08.58,0,1.12-.15,1.63-.46.51-.31.93-.77,1.25-1.4s.48-1.38.48-2.27c0-1.41-.31-2.51-.93-3.3s-1.44-1.18-2.46-1.18-1.78.38-2.38,1.13c-.6.75-.9,1.82-.9,3.21Z"/>
    <path class="cls-14" d="M175.38,44.73v5.14c.44-.51.87-.91,1.29-1.21.42-.3.88-.52,1.39-.67.51-.15,1.05-.22,1.64-.22.88,0,1.66.19,2.34.56.68.37,1.22.91,1.61,1.62.25.41.41.88.5,1.39.08.51.13,1.1.13,1.77v6.64c0,.69-.16,1.22-.48,1.57s-.74.53-1.26.53c-1.14,0-1.71-.7-1.71-2.11v-5.85c0-1.11-.17-1.96-.5-2.56s-.96-.89-1.88-.89c-.62,0-1.17.18-1.67.53-.5.35-.87.83-1.11,1.44-.19.52-.28,1.43-.28,2.75v4.58c0,.69-.15,1.21-.46,1.57-.31.36-.74.54-1.29.54-1.14,0-1.71-.7-1.71-2.11v-15.03c0-.7.15-1.23.45-1.58.3-.35.72-.53,1.26-.53s.98.18,1.29.53.46.88.46,1.57Z"/>
    <path class="cls-17" d="M187.89,48.08h.38v-2.08c0-.56.01-1,.04-1.31s.11-.59.25-.82c.14-.24.33-.43.58-.58.25-.15.54-.22.85-.22.44,0,.84.17,1.19.5.24.22.39.49.45.81s.1.77.1,1.35v2.36h1.27c.49,0,.87.12,1.12.35.26.23.39.53.39.9,0,.46-.18.79-.55.98-.37.19-.9.28-1.58.28h-.65v6.37c0,.54.02.96.06,1.25s.14.53.3.71c.17.18.43.27.81.27.2,0,.48-.04.83-.11.35-.07.62-.11.81-.11.28,0,.53.11.76.34.22.22.34.5.34.83,0,.56-.3.99-.91,1.28-.61.3-1.49.44-2.63.44-1.08,0-1.9-.18-2.46-.55-.56-.36-.92-.87-1.1-1.51-.17-.64-.26-1.5-.26-2.58v-6.65h-.46c-.5,0-.88-.12-1.14-.36-.26-.24-.39-.54-.39-.9s.14-.66.41-.9c.27-.23.67-.35,1.2-.35Z"/>
    <path class="cls-16" d="M208.06,57.33c0,.96-.23,1.78-.7,2.46-.46.68-1.15,1.2-2.06,1.55-.91.35-2.02.53-3.32.53s-2.31-.19-3.2-.57-1.54-.86-1.97-1.43-.63-1.14-.63-1.72c0-.38.14-.71.41-.98.27-.27.61-.41,1.03-.41.36,0,.64.09.84.27s.38.43.56.75c.36.62.78,1.08,1.28,1.38s1.17.46,2.02.46c.69,0,1.26-.15,1.71-.46.44-.31.67-.66.67-1.06,0-.61-.23-1.05-.69-1.33-.46-.28-1.22-.55-2.28-.8-1.19-.3-2.16-.61-2.91-.93-.75-.33-1.35-.75-1.8-1.29s-.67-1.19-.67-1.97c0-.69.21-1.35.62-1.97.41-.62,1.03-1.11,1.83-1.48s1.78-.55,2.93-.55c.9,0,1.7.09,2.42.28.71.19,1.31.44,1.79.75.48.31.84.66,1.09,1.04.25.38.37.75.37,1.12,0,.4-.13.72-.4.98-.27.25-.65.38-1.14.38-.36,0-.66-.1-.91-.3s-.54-.51-.86-.91c-.26-.34-.57-.61-.93-.81s-.84-.3-1.45-.3-1.15.13-1.56.4-.62.6-.62,1c0,.36.15.66.46.89.3.23.72.43,1.23.58s1.23.34,2.13.56c1.07.26,1.95.58,2.63.94.68.36,1.2.79,1.55,1.29s.53,1.06.53,1.7Z"/>
  </g>
</svg>