<?xml version="1.0" encoding="UTF-8"?>
<svg id="Layer_1" data-name="Layer 1" xmlns="http://www.w3.org/2000/svg" xmlns:xlink="http://www.w3.org/1999/xlink" viewBox="0 0 48.25 48.26">
  <defs>
    <style>
      .cls-1 {
        fill: url(#linear-gradient);
      }

      .cls-2 {
        fill: #fff;
      }
    </style>
    <linearGradient id="linear-gradient" x1="1.71" y1="24.31" x2="46.52" y2="24.31" gradientUnits="userSpaceOnUse">
      <stop offset="0" stop-color="#1b449c"/>
      <stop offset="1" stop-color="#ec008c"/>
    </linearGradient>
  </defs>
  <circle class="cls-1" cx="24.12" cy="24.31" r="22.4"/>
  <g>
    <path class="cls-2" d="M24.35,29.36c.17.11.34.22.5.32.13-.08.26-.17.39-.26,1.24-.82,1.72-1.47,1.72-2.31,0-.01,0-.03,0-.04s0-.03,0-.04c0-.84-.48-1.49-1.72-2.31-.13-.09-.26-.17-.39-.26h-.99c.11.07.22.14.33.21.21.14.44.28.66.43.16.1.3.2.42.3h-2.28c.13-.09.27-.19.42-.3.17-.11.33-.22.49-.32-.17-.11-.34-.22-.5-.32-.13.08-.26.17-.39.26-1.24.82-1.72,1.47-1.72,2.31,0,.01,0,.03,0,.04,0,.01,0,.03,0,.04,0,.84.48,1.49,1.72,2.31.23.15.45.29.66.44.06.04.17.12.17.12.11.07.22.14.33.21.21.14.44.28.66.43.16.1.3.2.42.3h-2.28c.13-.09.27-.19.42-.3.17-.11.33-.22.49-.32-.17-.11-.34-.22-.5-.32-.13.08-.26.17-.39.26-1.24.82-1.72,1.47-1.72,2.31,0,.01,0,.03,0,.04,0,.01,0,.03,0,.04,0,.84.48,1.49,1.72,2.31.23.15.45.29.66.44.06.04.17.12.17.12.11.07.22.14.33.21.21.14.44.28.66.43.16.1.3.2.42.3h-2.28c.13-.09.27-.19.42-.3.17-.11.33-.22.49-.32-.17-.11-.34-.22-.5-.32-.13.08-.26.17-.39.26-1.24.82-1.72,1.47-1.72,2.31,0,.01,0,.03,0,.04,0,.01,0,.03,0,.04,0,.84.48,1.49,1.72,2.31.23.15.45.29.66.44.06.04.12.08.18.12h.99c-.24-.16-.5-.33-.77-.51-.21-.14-.44-.28-.66-.43-.13-.08-.24-.16-.35-.24h2.12c-.11.08-.22.16-.35.24-.17.11-.33.22-.49.32.17.11.34.22.5.32.13-.08.26-.17.39-.26,1.24-.82,1.72-1.47,1.72-2.31,0-.01,0-.03,0-.04s0-.03,0-.04c0-.84-.48-1.49-1.72-2.31-.13-.09-.39-.26-.39-.26-.24-.16-.5-.33-.77-.51-.21-.14-.44-.28-.66-.43-.13-.08-.24-.16-.35-.24h2.12c-.11.08-.22.16-.35.24-.17.11-.33.22-.49.32.17.11.34.22.5.32.13-.08.26-.17.39-.26,1.24-.82,1.72-1.47,1.72-2.31,0-.01,0-.03,0-.04s0-.03,0-.04c0-.84-.48-1.49-1.72-2.31-.13-.09-.39-.26-.39-.26-.24-.16-.5-.33-.77-.51-.21-.14-.44-.28-.66-.43-.13-.08-.24-.16-.35-.24h2.12c-.11.08-.22.16-.35.24-.17.11-.33.22-.49.32ZM25.64,39.46h-3.04c-.29-.26-.47-.49-.57-.72h4.18c-.1.22-.28.45-.57.72ZM26.33,38.06v.02h0s0,.01,0,.02c0,0,0,.01,0,.02h0v.02c0,.08,0,.15-.02.23h-4.39c-.01-.08-.02-.15-.02-.23v-.02h0s0-.01,0-.02v-.02s0-.02,0-.02c0-.1,0-.2.03-.3h4.37c.02.1.03.2.03.3ZM26.17,37.4h-4.11c.1-.19.25-.38.48-.59h3.16c.23.21.38.41.48.59ZM25.64,33.95h-3.04c-.29-.26-.47-.49-.57-.72h4.18c-.1.22-.28.45-.57.72ZM26.33,32.55v.02h0s0,.01,0,.02c0,0,0,.01,0,.02h0v.02c0,.08,0,.15-.02.23h-4.39c-.01-.08-.02-.15-.02-.23v-.02h0s0-.01,0-.02v-.02s0-.02,0-.02c0-.1,0-.2.03-.3h4.37c.02.1.03.2.03.3ZM26.17,31.89h-4.11c.1-.19.25-.38.48-.59h3.16c.23.21.38.41.48.59ZM22.54,25.78h3.16c.23.21.38.41.48.59h-4.11c.1-.19.25-.38.48-.59ZM21.91,27.12v-.02h0s0-.01,0-.02v-.02s0-.02,0-.02c0-.1,0-.2.03-.3h4.37c.02.1.03.2.03.3v.02h0s0,.01,0,.02c0,0,0,.01,0,.02h0v.02c0,.08,0,.15-.02.23h-4.39c-.01-.08-.02-.15-.02-.23ZM22.6,28.44c-.29-.26-.47-.49-.57-.72h4.18c-.1.22-.28.45-.57.72h-3.04Z"/>
    <g>
      <g>
        <rect class="cls-2" x="11.93" y="12.61" width="1.83" height="7.2" rx=".52" ry=".52" transform="translate(-7.69 13.77) rotate(-44.83)"/>
        <rect class="cls-2" x="14.04" y="10.5" width="1.83" height="7.2" rx=".52" ry=".52" transform="translate(-5.59 14.65) rotate(-44.83)"/>
        <rect class="cls-2" x="17.72" y="18.44" width="1.83" height="7.2" rx=".52" ry=".52" transform="translate(-10.12 19.55) rotate(-44.83)"/>
        <rect class="cls-2" x="19.84" y="16.33" width="1.83" height="7.2" rx=".52" ry=".52" transform="translate(-8.01 20.43) rotate(-44.83)"/>
      </g>
      <g>
        <path class="cls-2" d="M32.88,10.51h.79c.29,0,.52.23.52.52v6.16c0,.29-.23.52-.52.52h-.79c-.29,0-.52-.23-.52-.52v-6.16c0-.29.23-.52.52-.52Z" transform="translate(19.82 -19.43) rotate(45.17)"/>
        <path class="cls-2" d="M34.99,12.63h.79c.29,0,.52.23.52.52v6.16c0,.29-.23.52-.52.52h-.79c-.29,0-.52-.23-.52-.52v-6.16c0-.29.23-.52.52-.52Z" transform="translate(21.95 -20.3) rotate(45.17)"/>
        <path class="cls-2" d="M27.05,16.31h.79c.29,0,.52.23.52.52v6.16c0,.29-.23.52-.52.52h-.79c-.29,0-.52-.23-.52-.52v-6.16c0-.29.23-.52.52-.52Z" transform="translate(22.21 -13.59) rotate(45.17)"/>
        <path class="cls-2" d="M29.16,18.42h.79c.29,0,.52.23.52.52v6.16c0,.29-.23.52-.52.52h-.79c-.29,0-.52-.23-.52-.52v-6.16c0-.29.23-.52.52-.52Z" transform="translate(24.34 -14.46) rotate(45.17)"/>
      </g>
    </g>
  </g>
</svg>